HIERARCHY
ROOT Hips
{
	OFFSET -3.958830 18.904000 13.208200
	CHANNELS 6 Xposition Yposition Zposition Zrotation Yrotation Xrotation 
	JOINT LHipJoint
	{
		OFFSET 0.000000 0.000000 0.000000
		CHANNELS 3 Zrotation Yrotation Xrotation
		JOINT LeftUpLeg
		{
			OFFSET 1.800000 -1.400000 0.085000
			CHANNELS 3 Zrotation Yrotation Xrotation
			JOINT LeftLeg
			{
				OFFSET 2.215000 -6.000000 0.000000
				CHANNELS 3 Zrotation Yrotation Xrotation
				JOINT LeftFoot
				{
					OFFSET 2.500000 -6.900000 0.000000
					CHANNELS 3 Zrotation Yrotation Xrotation
					JOINT LeftToeBase
					{
						OFFSET 0.200000 -0.500000 1.950000
						CHANNELS 3 Zrotation Yrotation Xrotation
						End Site
						{
							OFFSET 0.000000 0.000000 0.000000
						}
					}
				}
			}
		}
	}
	JOINT RHipJoint
	{
		OFFSET 0.000000 0.000000 0.000000
		CHANNELS 3 Zrotation Yrotation Xrotation
		JOINT RightUpLeg
		{
			OFFSET -1.800000 -1.400000 0.085000
			CHANNELS 3 Zrotation Yrotation Xrotation
			JOINT RightLeg
			{
				OFFSET -2.215000 -6.000000 0.000000
				CHANNELS 3 Zrotation Yrotation Xrotation
				JOINT RightFoot
				{
					OFFSET -2.500000 -6.900000 0.000000
					CHANNELS 3 Zrotation Yrotation Xrotation
					JOINT RightToeBase
					{
						OFFSET -0.200000 -0.500000 1.950000
						CHANNELS 3 Zrotation Yrotation Xrotation
						End Site
						{
							OFFSET 0.000000 0.000000 0.000000
						}
					}
				}
			}
		}
	}
	JOINT LowerBack
	{
		OFFSET 0.000000 0.000000 0.000000
		CHANNELS 3 Zrotation Yrotation Xrotation
		JOINT Spine
		{
			OFFSET -0.087000 1.940000 -0.288900
			CHANNELS 3 Zrotation Yrotation Xrotation
			JOINT Spine1
			{
				OFFSET 0.000000 1.950000 0.060000
				CHANNELS 3 Zrotation Yrotation Xrotation
				JOINT Neck
				{
					OFFSET 0.000000 0.000000 0.000000
					CHANNELS 3 Zrotation Yrotation Xrotation
					JOINT Neck1
					{
						OFFSET 0.000000 1.600000 0.340000
						CHANNELS 3 Zrotation Yrotation Xrotation
						JOINT Head
						{
							OFFSET 0.000000 1.667000 -0.240000
							CHANNELS 3 Zrotation Yrotation Xrotation
							End Site
							{
								OFFSET 0.000000 0.000000 0.000000
							}
						}
					}
				}
				JOINT LeftShoulder
				{
					OFFSET 0.000000 0.000000 0.000000
					CHANNELS 3 Zrotation Yrotation Xrotation
					JOINT LeftArm
					{
						OFFSET 2.700000 1.550000 -0.730000
						CHANNELS 3 Zrotation Yrotation Xrotation
						JOINT LeftForeArm
						{
							OFFSET 5.450000 0.000000 0.000000
							CHANNELS 3 Zrotation Yrotation Xrotation
							JOINT LeftHand
							{
								OFFSET 3.450000 0.000000 0.000000
								CHANNELS 3 Zrotation Yrotation Xrotation
								JOINT LeftHandIndex1
								{
									OFFSET 0.750000 0.000000 0.000000
									CHANNELS 3 Zrotation Yrotation Xrotation
									End Site
									{
										OFFSET 0.000000 0.000000 0.000000
									}
								}
							}
						}
					}
				}
				JOINT RightShoulder
				{
					OFFSET 0.000000 0.000000 0.000000
					CHANNELS 3 Zrotation Yrotation Xrotation
					JOINT RightArm
					{
						OFFSET -2.700000 1.550000 -0.730000
						CHANNELS 3 Zrotation Yrotation Xrotation
						JOINT RightForeArm
						{
							OFFSET -5.450000 0.000000 0.000000
							CHANNELS 3 Zrotation Yrotation Xrotation
							JOINT RightHand
							{
								OFFSET -3.450000 0.000000 0.000000
								CHANNELS 3 Zrotation Yrotation Xrotation
								JOINT RightHandIndex1
								{
									OFFSET -0.750000 0.000000 0.000000
									CHANNELS 3 Zrotation Yrotation Xrotation
									End Site
									{
										OFFSET 0.000000 0.000000 0.000000
									}
								}
							}
						}
					}
				}
			}
		}
	}
}
MOTION
Frames: 9
Frame Time: 0.016667
1.070200 15.918990 -2.517420 7.385398 -6.703987 2.763893 -14.961305 13.148651 2.594815 8.321214 -4.036988 -17.295955 -5.500839 8.234301 30.813938 -0.870548 6.742049 2.504948 0.798820 0.195610 0.236530 18.609486 -10.438922 3.091210 0.461586 4.339517 -34.567195 -4.002164 -6.998046 46.738832 -0.725209 -6.715370 2.394112 0.455180 0.801870 0.304120 -4.311861 -2.048410 -7.007429 15.982625 -10.914834 11.151081 -15.093000 -7.911304 12.857669 1.781528 -4.230415 -7.803531 -7.580853 -1.235433 21.442271 3.206070 -5.796020 -11.657340 -16.719965 -7.504574 0.616283 -23.514944 -22.045190 8.535827 168.371499 -53.958378 -165.370396 -3.982139 3.438059 0.581430 0.481690 -0.466680 0.618630 12.852345 5.594136 7.661487 30.936090 -4.613153 -4.484299 173.237594 62.811554 156.903636 0.948146 -2.173389 -0.476940 0.622090 0.046820 -0.306410 
1.139210 15.791020 -2.546110 7.202188 -10.011472 3.074693 -14.987067 12.995495 2.453831 8.784711 -3.935446 -17.184675 -4.791485 8.604704 32.867628 -0.821877 7.076724 2.401393 0.810530 0.217730 0.256050 18.629775 -10.084617 3.550756 0.240455 6.337681 -37.272662 0.582798 -9.319711 49.169912 -0.868180 -7.373828 2.189482 0.483280 0.829720 0.290450 -4.317929 -2.018153 -7.184762 15.111120 -9.983550 11.770174 -14.196584 -7.156954 12.031460 1.700542 -4.231870 -7.440796 -7.455149 -0.132947 21.246205 2.739070 -4.731710 -11.174330 -18.036190 -7.372729 0.521991 -21.688731 -20.309099 7.626866 169.513873 -52.882520 -166.870979 -4.018030 3.412109 0.569600 0.506740 -0.474160 0.633640 14.401420 5.820634 7.068196 29.365160 -2.505151 -3.429615 174.023447 61.477103 158.133083 0.962331 -2.170653 -0.499400 0.660890 0.030750 -0.308350 
1.196040 15.654660 -2.560000 7.520869 -12.448461 2.546793 -15.042018 12.938629 2.286720 8.762719 -3.750554 -16.377779 -3.639727 8.683083 34.667595 -0.806081 7.304405 2.289711 0.874640 0.311450 0.286960 18.616480 -9.740884 3.955662 -1.554716 7.777456 -40.082635 4.948170 -12.258144 52.585839 -1.129718 -8.414437 1.832355 0.542970 0.806950 0.311720 -4.241845 -2.189271 -7.346823 13.010628 -9.535056 13.039259 -12.933042 -7.067319 11.167523 1.435577 -4.617679 -6.705213 -7.974458 1.044957 20.739009 2.634650 -4.096250 -12.644590 -19.824495 -6.639486 0.449256 -20.881394 -17.874581 6.462383 170.438812 -51.772753 -168.570463 -4.038091 3.432152 0.575730 0.500020 -0.441010 0.635490 16.858608 5.763028 5.789027 27.432843 0.834671 -2.108138 171.908858 60.103997 154.968381 0.957338 -2.156062 -0.474170 0.668820 0.021920 -0.306830 
1.236180 15.511740 -2.534170 7.080831 -14.429180 1.363499 -15.077572 12.887149 2.073733 10.012003 -3.327180 -14.333822 -3.309911 9.272284 36.136278 -0.737532 7.685977 2.121767 0.905750 0.339550 0.321710 18.612775 -9.406637 4.382193 -4.221234 9.109089 -42.386660 10.208878 -16.445673 56.581920 -1.507778 -9.880619 1.356082 0.554250 0.761750 0.350520 -4.212271 -2.317789 -7.559838 11.755681 -9.220152 14.718351 -11.618651 -7.140449 9.821318 1.322195 -4.854944 -6.023255 -8.369183 2.318049 20.939099 1.920230 -3.253510 -13.006730 -22.540848 -6.264827 0.686208 -20.367077 -13.795156 4.776009 176.560226 -52.490631 178.571225 -4.045517 3.509107 0.589350 0.487860 -0.409260 0.613750 19.929220 5.964827 4.407012 24.926856 3.430143 -1.467943 166.595054 59.099354 146.287865 0.981410 -2.127435 -0.443010 0.622990 0.023140 -0.321490 
1.266760 15.389030 -2.490520 5.921079 -16.408314 -0.653234 -15.052635 12.823776 1.841034 12.061760 -2.611991 -11.080507 -3.459870 10.126157 36.957313 -0.604330 8.032294 2.005359 0.946070 0.382850 0.360920 18.646124 -9.177279 4.800144 -7.518420 10.275733 -43.599816 16.422809 -21.388167 59.507786 -1.959825 -11.352890 0.955630 0.546110 0.695540 0.343080 -4.329697 -2.229596 -7.784707 12.026025 -8.951134 17.525312 -11.044133 -7.103848 8.542865 1.134845 -5.428143 -5.654779 -9.374314 3.450117 21.693297 2.174540 -3.139660 -14.438330 -25.665998 -6.450942 1.084292 -19.217861 -9.003127 2.372059 -174.590494 -54.469889 160.404337 -3.976949 3.540738 0.633230 0.423500 -0.348990 0.621890 23.436459 6.897619 3.628517 23.129606 5.187827 -1.568340 166.072565 57.175725 144.295926 1.042597 -2.118267 -0.411610 0.609400 -0.020280 -0.320300 
1.286530 15.279980 -2.438030 4.989582 -19.286881 -3.791686 -15.058015 12.886357 1.652713 13.822561 -1.494670 -6.217821 -3.432805 11.015811 37.344034 -0.358861 8.353529 1.935657 0.858420 0.264280 0.388780 18.617245 -8.924791 5.266022 -12.052373 11.345343 -43.771958 24.278417 -27.207476 60.973491 -2.408322 -12.748911 0.624858 0.409360 0.595440 0.318430 -4.302579 -2.333612 -8.112020 11.543963 -8.000762 21.902619 -10.212303 -6.320490 7.134986 1.452668 -5.444241 -6.406266 -9.799848 4.238057 24.259878 0.541430 -2.064280 -14.294810 -28.911841 -8.135100 2.415612 -18.824182 -3.061511 -0.804953 -163.850131 -57.658812 140.356167 -3.914335 3.516406 0.680630 0.350830 -0.289810 0.567770 26.023299 9.402459 4.048331 22.276859 5.413549 -2.847629 163.199419 55.742971 137.082843 1.197155 -2.028156 -0.390930 0.542140 -0.036330 -0.347980 
1.290670 15.190670 -2.379830 3.934353 -22.720261 -6.845348 -15.091272 12.907114 1.537645 15.460298 -0.246477 -1.760482 -3.176200 12.031224 38.554843 -0.143864 8.819960 1.770632 0.820410 0.175070 0.452970 18.568381 -8.669839 5.708529 -16.871868 12.486734 -43.260040 34.199048 -32.584475 58.967290 -2.750548 -13.538866 0.438431 0.297700 0.468610 0.357700 -4.236532 -2.357529 -8.401548 11.409188 -6.305982 26.063304 -9.709547 -4.670337 5.762621 2.073345 -4.416014 -6.708381 -8.411785 4.522907 27.722393 -1.451740 -0.918160 -15.002690 -32.291003 -9.170907 3.048112 -19.103715 1.813335 -3.332328 -145.473824 -61.311049 113.070472 -3.868749 3.514338 0.758660 0.283930 -0.209590 0.493920 28.068211 10.805285 4.264776 22.910012 5.515284 -4.178337 159.641556 54.926346 128.747696 1.303624 -1.958066 -0.345020 0.436260 -0.031640 -0.401090 
1.286660 15.128250 -2.334520 3.308475 -25.930215 -9.570234 -15.106731 12.967535 1.457061 16.036797 0.984755 0.770032 -1.611459 12.596472 41.359909 0.073861 9.252456 1.636262 0.800980 0.135010 0.515150 18.528907 -8.576862 6.001496 -21.354142 13.135699 -41.634559 44.121444 -35.850454 54.303303 -2.891455 -13.509992 0.468974 0.222230 0.367700 0.359170 -4.221842 -2.276276 -8.548567 11.734604 -4.600141 29.303183 -9.915099 -2.862189 4.409757 2.577353 -3.894683 -6.906358 -7.826737 4.737595 31.133113 -3.301670 -0.188190 -16.014960 -34.812882 -9.223108 3.258020 -20.049407 5.877256 -5.289334 -125.920150 -64.159247 89.578342 -3.825898 3.411156 0.820800 0.213350 -0.126510 0.457370 29.365877 11.807415 4.522662 25.040079 6.167354 -4.884554 156.370664 54.138799 121.091928 1.415143 -1.886739 -0.314700 0.396400 -0.055910 -0.427980 
1.286970 15.099310 -2.306630 2.199483 -27.425442 -10.698041 -15.079394 13.034962 1.310980 16.553107 2.032343 1.897001 0.607090 11.987614 41.948341 0.055782 9.163320 1.661519 0.826460 0.134550 0.581110 18.545142 -8.571616 6.243985 -26.546278 12.642581 -40.664275 55.421651 -35.712758 45.102625 -2.794322 -12.591591 0.706536 0.207650 0.284210 0.327170 -4.332284 -2.108575 -8.561851 13.643746 -3.682660 30.549311 -10.446757 -1.551092 3.731240 2.996416 -4.267450 -6.936819 -8.560115 6.016631 33.774745 -3.933590 0.420800 -18.317560 -36.121051 -7.964697 3.331635 -22.342287 8.070328 -5.525583 -94.959823 -67.080230 59.252799 -3.689941 3.390471 0.926740 0.127250 -0.059370 0.445950 29.591897 11.844441 4.425672 28.421321 7.346864 -4.987789 153.908997 54.098376 116.314650 1.465342 -1.797189 -0.334760 0.416230 -0.081860 -0.469310 
